/* XPM */
static char *_2fc753ef6a843e181ae65309aee239c[] = {
/* columns rows colors chars-per-pixel */
"32 32 173 2 ",
"   c #068210",
".  c #078211",
"X  c #078311",
"o  c #078412",
"O  c #088312",
"+  c #098413",
"@  c #088513",
"#  c #098614",
"$  c #098715",
"%  c #0D8617",
"&  c #0A8815",
"*  c #0A8816",
"=  c #0B8916",
"-  c #0E8618",
";  c #0F8719",
":  c #0C8B19",
">  c #0F8B1B",
",  c #0D8C1A",
"<  c #0D8D1B",
"1  c #0E8D1B",
"2  c #0F8F1C",
"3  c #10871A",
"4  c #158A1F",
"5  c #108F1D",
"6  c #10901E",
"7  c #10911F",
"8  c #11911F",
"9  c #11921F",
"0  c #178A20",
"q  c #188D22",
"w  c #1A8C23",
"e  c #1C8D25",
"r  c #119220",
"t  c #119320",
"y  c #139523",
"u  c #149623",
"i  c #149624",
"p  c #149724",
"a  c #149725",
"s  c #169826",
"d  c #169926",
"f  c #179A28",
"g  c #189C2A",
"h  c #199D2A",
"j  c #199D2B",
"k  c #199E2B",
"l  c #1A9F2D",
"z  c #218F29",
"x  c #279330",
"c  c #34993C",
"v  c #35993D",
"b  c #349E3F",
"n  c #1BA02D",
"m  c #1BA02E",
"M  c #1BA12E",
"N  c #1CA22F",
"B  c #1DA330",
"V  c #1DA331",
"C  c #1DA431",
"Z  c #1EA431",
"A  c #1EA432",
"S  c #1EA532",
"D  c #1FA533",
"F  c #1FA634",
"G  c #20A734",
"H  c #20A835",
"J  c #21A936",
"K  c #22AB38",
"L  c #24AD3A",
"P  c #24AE3B",
"I  c #25AF3C",
"U  c #26B03D",
"Y  c #26B13E",
"T  c #27B13E",
"R  c #27B13F",
"E  c #27B23F",
"W  c #3B9D43",
"Q  c #28B240",
"!  c #28B340",
"~  c #28B441",
"^  c #29B441",
"/  c #29B442",
"(  c #29B542",
")  c #29B543",
"_  c #2AB542",
"`  c #2AB443",
"'  c #2AB543",
"]  c #29B642",
"[  c #29B742",
"{  c #29B643",
"}  c #2AB642",
"|  c #2AB742",
" . c #2AB643",
".. c #2AB743",
"X. c #2BB744",
"o. c #2DB745",
"O. c #37B34B",
"+. c #31B949",
"@. c #34B94C",
"#. c #3EBD55",
"$. c #419F48",
"%. c #48A34F",
"&. c #54A95A",
"*. c #43B756",
"=. c #43BF59",
"-. c #66B26D",
";. c #67B36D",
":. c #6EB673",
">. c #74B979",
",. c #75BA7B",
"<. c #79BC7E",
"1. c #4FC364",
"2. c #52C165",
"3. c #5DC770",
"4. c #61C270",
"5. c #61C974",
"6. c #63C975",
"7. c #65CA77",
"8. c #6ACC7B",
"9. c #6ECA7D",
"0. c #7CBD81",
"q. c #7FBF84",
"w. c #87C38C",
"e. c #8AC48E",
"r. c #80D38F",
"t. c #8DC692",
"y. c #8ECA94",
"u. c #94CD9A",
"i. c #9BCD9F",
"p. c #89D797",
"a. c #93DA9F",
"s. c #99DCA5",
"d. c #A0CFA4",
"f. c #A6D2A9",
"g. c #A1DFAC",
"h. c #ADD6B0",
"j. c #BCDDBF",
"k. c #BCDEBF",
"l. c #A6E0B0",
"z. c #ABE2B5",
"x. c #B6E6BF",
"c. c #B9E7C1",
"v. c #C3E1C5",
"b. c #C4E2C7",
"n. c #C9E4CB",
"m. c #CAE4CC",
"M. c #CEE6D0",
"N. c #CDECD2",
"B. c #CDEDD3",
"V. c #D1E8D3",
"C. c #DBEDDD",
"Z. c #DCEEDE",
"A. c #DFEFE1",
"S. c #DBF3E0",
"D. c #E1F5E4",
"F. c #E3F5E6",
"G. c #E6F6E9",
"H. c #E9F4EA",
"J. c #E8F7EA",
"K. c #EEF6EE",
"L. c #ECF8EE",
"P. c #F1F8F2",
"I. c #F1FAF3",
"U. c #F4FAF5",
"Y. c #F9FCFA",
"T. c #FBFDFB",
"R. c #FCFDFC",
"E. c #FCFEFD",
"W. c #FDFEFD",
"Q. c #FEFEFE",
"!. c #FEFFFE",
"~. c gray100",
"^. c None",
/* pixels */
"^.^.^.^.^.^.^.^.^.( ^.^.^.^.^.^.^.^.^.^.^.^.^.^.^.^.^.^.^.^.^.^.",
"^.^.^.^.^.^.^.^.( P H T  .( ( ^.^.^.^.^.^.^.^.^.^.^.^.^.^.^.^.^.",
"^.^.^.^.^.^.^.(  .T   . = 8 g F T  .^.^.^.^.^.^.^.^.^.^.^.^.^.^.",
"^.^.^.^.^.^. .( ( ( 5 % .   .   . A ( ^.^.^.^.^.^.^.^.^.^.^.^.^.",
"^.^.^.^.^.(  . .( 1.B.;.        . 8 ( ^.^.^.^.^.^.^.^.^.^.^.^.^.",
"^.^.^.^.^. . .+.s.T.~.k.        . o ! ^.^.^.^.^.^.^.^.^.^.^.^.^.",
"^.^.^.^. . .5.D.~.~.~.T.e           N X.^.^.^.^.^.^.^.^.^.^.^.^.",
"^.^.^.(  .( z.~.~.~.~.~.:.          8 ( ^.^.^.^.^.^.^.^.^.^.^.^.",
"^.^.^.^.X.( 5.~.~.~.~.~.v.          o T ^.^.^.^.^.^.^.^.^.^.^.^.",
"^.^.^.^.( X.o.L.~.~.~.~.~.z   - <.  . N ( ^.^.^.^.^.^.^.^.^.^.^.",
"^.^.^.^.( ( ( l.~.~.~.~.~.>.. h.U.; . g  . .( ^.^.^.^.^.^.^.^.^.",
"^.^.^.^.^.o.( 3.~.~.~.~.~.n.e.~.~.$.8 ( H a N K ( ( X.( ^.^.^.^.",
"^.^.^.^.^.( ( o.J.~.~.~.~.~.~.~.i.2 ! ..Q . .   o = y N ( ^.^.^.",
"^.^.^.^.^.( ( T u.~.~.~.~.~.~.j.; E  . .( 5     4       N X.^.^.",
"^.^.^.^.^.^.' y W ~.~.~.~.~.P.q P  . . . .A + >.K.4     8 ( ^.^.",
"^.^.^.^.^.' ( ( ( D.~.~.~.~.~.*. . . . . .2.M.~.~.;.    o T ^.^.",
"^.^.^.^.X. .K o ; y.~.~.~.~.~.a. . . .@.g.E.~.~.~.j.      N ( ^.",
"^.^.^.^.( ( ( = o f.~.~.~.~.~.S. . .8.G.~.~.~.~.~.d.      < ( ^.",
"^.^.^.( X.(  .g q.~.~.~.~.~.~.~.7.c.~.~.~.~.~.C.%.          T ^.",
"^.^.( X.( X. .9.~.~.J.~.~.~.~.~.~.~.~.~.~.T.w.%             N ( ",
"^.(  . . . . .p.~.v.v ~.~.~.~.~.~.~.~.~.N.b                 H ( ",
".. . . . . . .=.C.w . V.~.~.~.~.~.~.I.r.a                 A ( ^.",
" . . . . . ...( O.    0.~.~.~.~.~.c.#.g                 g ( ^.^.",
"^. . . . . . .( H     x ~.~.~.A.4.( F               . a X.^.^.^.",
"^. . . . . . .P o .     n.T.t.3 a  .g 7 +     .     8 ( ^.^.^.^.",
"^.^. . . . .T =         &.v . = T  .(  ...T F g 8 8 ( ^.^.^.^.^.",
"^.^. . .( ! < .         .   o P X.^.^.^.^.^.^.( ( ( ( ^.^.^.^.^.",
"^.^.(  .( 6               o H ( ^.^.^.^.^.^.^.^.^.^.^.^.^.^.^.^.",
"^.^.^. .a                 F X.^.^.^.^.^.^.^.^.^.^.^.^.^.^.^.^.^.",
"^.^.^. .T F f 2 # .     g ( ^.^.^.^.^.^.^.^.^.^.^.^.^.^.^.^.^.^.",
"^.^.^.^.^. .( ! ( T G N ( ^.^.^.^.^.^.^.^.^.^.^.^.^.^.^.^.^.^.^.",
"^.^.^.^.^.^.^.^.^.^.^.( ^.^.^.^.^.^.^.^.^.^.^.^.^.^.^.^.^.^.^.^."
};
