/* XPM */
static char *_19a49a17ba24429b7bd6a2c1ce989ef[] = {
/* columns rows colors chars-per-pixel */
"16 16 96 2 ",
"   c #068210",
".  c #078311",
"X  c #088312",
"o  c #088512",
"O  c #098714",
"+  c #0A8615",
"@  c #0A8715",
"#  c #0C8616",
"$  c #0B8917",
"%  c #0C8B19",
"&  c #0D8C19",
"*  c #0D8D1B",
"=  c #0F8E1C",
"-  c #11921F",
";  c #168A20",
":  c #149624",
">  c #169927",
",  c #179B29",
"<  c #199828",
"1  c #189C29",
"2  c #199D2B",
"3  c #199E2B",
"4  c #1A9F2C",
"5  c #23902C",
"6  c #25922E",
"7  c #2B9635",
"8  c #2C9534",
"9  c #1FA030",
"0  c #1CA330",
"q  c #1DA331",
"w  c #1EA432",
"e  c #1EA533",
"r  c #20A734",
"t  c #21A937",
"y  c #21AA37",
"u  c #22AA37",
"i  c #22AB38",
"p  c #22AB39",
"a  c #22AC39",
"s  c #23AC39",
"d  c #24AD3A",
"f  c #24AD3B",
"g  c #24AE3B",
"h  c #24AF3C",
"j  c #26B03D",
"k  c #38A545",
"l  c #27B340",
"z  c #28B240",
"x  c #28B441",
"c  c #29B441",
"v  c #29B542",
"b  c #2AB542",
"n  c #2AB543",
"m  c #29B642",
"M  c #29B643",
"N  c #2AB642",
"B  c #2AB643",
"V  c #2CB745",
"C  c #31B447",
"Z  c #36B44B",
"A  c #47A952",
"S  c #52AB5A",
"D  c #7ABC7F",
"F  c #48C05E",
"G  c #56C56A",
"H  c #6BCC7D",
"J  c #82C187",
"K  c #8FC794",
"L  c #91C895",
"P  c #93C997",
"I  c #93C998",
"U  c #93CF9A",
"Y  c #9ACD9E",
"T  c #83D592",
"R  c #91D19A",
"E  c #90D79C",
"W  c #9CCDA0",
"Q  c #9FDEAA",
"!  c #AED7B2",
"~  c #BCDFBF",
"^  c #BBE8C3",
"/  c #C7ECCD",
"(  c #CFE7D1",
")  c #D7EBD8",
"_  c #DBF3DF",
"`  c #DFEFE0",
"'  c #DEF0E0",
"]  c #DCF3E0",
"[  c #E7F7EA",
"{  c #EEF7EF",
"}  c #F7FBF7",
"|  c #FAFCFA",
" . c #FEFEFE",
".. c #FEFFFE",
"X. c gray100",
"o. c None",
/* pixels */
"o.o.o.o.c f o.o.o.o.o.o.o.o.o.o.",
"o.o.o.N c X # - q o.o.o.o.o.o.o.",
"o.o.N V T ^     # l o.o.o.o.o.o.",
"o.o.N ^  . .6     e o.o.o.o.o.o.",
"o.o.V Q  . .D X 5 : o.o.o.o.o.o.",
"o.o.N G  . .( L L > i s N o.o.o.",
"o.o.o.N '  . .{ k N 4   # = f o.",
"o.o.o.f R  . .U c N C L Y   3 o.",
"o.o.V , S  . .] V H [  .)   = o.",
"o.N N Z ` |  . ./  . .W ;     i ",
"N N N F ! J  . . .' A       % j ",
"N V N V < 8  .} E 9       # f o.",
"o.V N e X   I 7 i e 3 - $ y o.o.",
"o.N s X       e o.o.o.o.o.o.o.o.",
"o.N 1 *     3 o.o.o.o.o.o.o.o.o.",
"o.o.o.o.l y o.o.o.o.o.o.o.o.o.o."
};
