/* XPM */
static char *_9b1e9ace2754ddbd30bfd8721e14a64[] = {
/* columns rows colors chars-per-pixel */
"64 64 105 2 ",
"   c #068210",
".  c #098514",
"X  c #0A8816",
"o  c #0E8618",
"O  c #0D8D1A",
"+  c #11871A",
"@  c #14891D",
"#  c #0F901D",
"$  c #10911E",
"%  c #178B21",
"&  c #1A8C23",
"*  c #1F8E28",
"=  c #139523",
"-  c #169926",
";  c #179B28",
":  c #189C2A",
">  c #24912D",
",  c #2C9535",
"<  c #2F9738",
"1  c #2E9C39",
"2  c #34993C",
"3  c #1CA12F",
"4  c #1EA532",
"5  c #20A734",
"6  c #21A936",
"7  c #23AD3A",
"8  c #26B13E",
"9  c #3C9D44",
"0  c #2AB643",
"q  c #33B94B",
"w  c #3BBC52",
"e  c #45A14C",
"r  c #4FA756",
"t  c #55AA5C",
"y  c #43BF59",
"u  c #50B85F",
"i  c #5DAE63",
"p  c #57B864",
"a  c #5ABA68",
"s  c #62B068",
"d  c #69B46F",
"f  c #6BB571",
"g  c #71B877",
"h  c #76BA7B",
"j  c #79BC7F",
"k  c #47C05D",
"l  c #4AC15F",
"z  c #4BC160",
"x  c #51C365",
"c  c #54C568",
"v  c #5BC46D",
"b  c #5EC670",
"n  c #62C974",
"m  c #67CB79",
"M  c #6BCC7C",
"N  c #7FBF83",
"B  c #71CE82",
"V  c #77D087",
"C  c #7DD28C",
"Z  c #80BF85",
"A  c #84C28A",
"S  c #8EC693",
"D  c #97CB9B",
"F  c #9ACC9E",
"G  c #86D594",
"H  c #8ED89B",
"J  c #92DA9F",
"K  c #9DCEA1",
"L  c #94DAA0",
"P  c #9ADDA6",
"I  c #9EDEA9",
"U  c #A2D1A6",
"Y  c #A5D2A8",
"T  c #AAD5AE",
"R  c #A5DEAF",
"E  c #B1D8B4",
"W  c #B7DBBA",
"Q  c #B9DCBC",
"!  c #AEE3B8",
"~  c #B3E5BC",
"^  c #BEDEC0",
"/  c #BAE7C2",
"(  c #BEE9C6",
")  c #C0DFC3",
"_  c #C3E1C5",
"`  c #C7E3C9",
"'  c #CDE6CF",
"]  c #C5EBCC",
"[  c #C8ECCF",
"{  c #CEE6D0",
"}  c #D0E7D2",
"|  c #D3E9D5",
" . c #D7EBD9",
".. c #DAECDB",
"X. c #D5F1DA",
"o. c #D9F2DD",
"O. c #DDF3E1",
"+. c #E4F3E6",
"@. c #ECF6ED",
"#. c #ECF9EE",
"$. c #EEF9F0",
"%. c #F3FAF4",
"&. c #F7FCF8",
"*. c #FFFFFF",
"=. c None",
/* pixels */
"=.=.=.=.=.=.=.=.=.=.=.=.=.=.=.=.=.=.=.=.=.=.=.=.=.=.=.=.=.=.=.=.=.=.=.=.=.=.=.=.=.=.=.=.=.=.=.=.=.=.=.=.=.=.=.=.=.=.=.=.=.=.=.=.",
"=.=.=.=.=.=.=.=.=.=.=.=.=.=.=.=.=.0 0 0 0 0 0 =.=.=.=.=.=.=.=.=.=.=.=.=.=.=.=.=.=.=.=.=.=.=.=.=.=.=.=.=.=.=.=.=.=.=.=.=.=.=.=.=.",
"=.=.=.=.=.=.=.=.=.=.=.=.=.=.=.=.=.0 0 0 0 0 0 0 0 0 0 0 =.=.=.=.=.=.=.=.=.=.=.=.=.=.=.=.=.=.=.=.=.=.=.=.=.=.=.=.=.=.=.=.=.=.=.=.",
"=.=.=.=.=.=.=.=.=.=.=.=.=.=.=.=.0 0 0 - = : 5 0 0 0 0 0 0 0 0 0 0 =.=.=.=.=.=.=.=.=.=.=.=.=.=.=.=.=.=.=.=.=.=.=.=.=.=.=.=.=.=.=.",
"=.=.=.=.=.=.=.=.=.=.=.=.=.=.=.0 0 0 0 :         X = ; 4 8 0 0 0 0 0 0 0 =.=.=.=.=.=.=.=.=.=.=.=.=.=.=.=.=.=.=.=.=.=.=.=.=.=.=.=.",
"=.=.=.=.=.=.=.=.=.=.=.=.=.=.0 0 0 0 0 0                   X $ : 4 8 0 0 0 =.=.=.=.=.=.=.=.=.=.=.=.=.=.=.=.=.=.=.=.=.=.=.=.=.=.=.",
"=.=.=.=.=.=.=.=.=.=.=.=.=.0 0 0 0 0 0 0 #                           : 0 0 =.=.=.=.=.=.=.=.=.=.=.=.=.=.=.=.=.=.=.=.=.=.=.=.=.=.=.",
"=.=.=.=.=.=.=.=.=.=.=.=.0 0 0 0 0 0 0 0 3 o >                       X 0 0 =.=.=.=.=.=.=.=.=.=.=.=.=.=.=.=.=.=.=.=.=.=.=.=.=.=.=.",
"=.=.=.=.=.=.=.=.=.=.=.0 0 0 0 0 0 0 0 0 b ..K .                       7 0 0 =.=.=.=.=.=.=.=.=.=.=.=.=.=.=.=.=.=.=.=.=.=.=.=.=.=.",
"=.=.=.=.=.=.=.=.=.=.0 0 0 0 0 0 0 0 w ! *.*.@..                       ; 0 0 =.=.=.=.=.=.=.=.=.=.=.=.=.=.=.=.=.=.=.=.=.=.=.=.=.=.",
"=.=.=.=.=.=.=.=.=.=.0 0 0 0 0 0 0 V @.*.*.*.*.r                       X 0 0 =.=.=.=.=.=.=.=.=.=.=.=.=.=.=.=.=.=.=.=.=.=.=.=.=.=.",
"=.=.=.=.=.=.=.=.=.0 0 0 0 0 0 k ] *.*.*.*.*.*.Y                         7 0 0 =.=.=.=.=.=.=.=.=.=.=.=.=.=.=.=.=.=.=.=.=.=.=.=.=.",
"=.=.=.=.=.=.=.=.0 0 0 0 0 q H &.*.*.*.*.*.*.*.$.o                       ; 0 0 =.=.=.=.=.=.=.=.=.=.=.=.=.=.=.=.=.=.=.=.=.=.=.=.=.",
"=.=.=.=.=.=.=.0 0 0 0 0 c o.*.*.*.*.*.*.*.*.*.*.t                       X 0 0 =.=.=.=.=.=.=.=.=.=.=.=.=.=.=.=.=.=.=.=.=.=.=.=.=.",
"=.=.=.=.=.=.0 0 0 0 0 0 C *.*.*.*.*.*.*.*.*.*.*.T                         6 0 0 =.=.=.=.=.=.=.=.=.=.=.=.=.=.=.=.=.=.=.=.=.=.=.=.",
"=.=.=.=.=.=.=.0 0 0 0 0 w &.*.*.*.*.*.*.*.*.*.*.%.+                       - 0 0 =.=.=.=.=.=.=.=.=.=.=.=.=.=.=.=.=.=.=.=.=.=.=.=.",
"=.=.=.=.=.=.=.0 0 0 0 0 0 ( *.*.*.*.*.*.*.*.*.*.*.i                       . 0 0 =.=.=.=.=.=.=.=.=.=.=.=.=.=.=.=.=.=.=.=.=.=.=.=.",
"=.=.=.=.=.=.=.0 0 0 0 0 0 V *.*.*.*.*.*.*.*.*.*.*.E           .             6 0 0 =.=.=.=.=.=.=.=.=.=.=.=.=.=.=.=.=.=.=.=.=.=.=.",
"=.=.=.=.=.=.=.=.0 0 0 0 0 w &.*.*.*.*.*.*.*.*.*.*.&.@         . e <         = 0 0 =.=.=.=.=.=.=.=.=.=.=.=.=.=.=.=.=.=.=.=.=.=.=.",
"=.=.=.=.=.=.=.=.0 0 0 0 0 0 / *.*.*.*.*.*.*.*.*.*.*.s         > @.A         . 0 0 =.=.=.=.=.=.=.=.=.=.=.=.=.=.=.=.=.=.=.=.=.=.=.",
"=.=.=.=.=.=.=.=.0 0 0 0 0 0 B *.*.*.*.*.*.*.*.*.*.*.W       & ..*. .          6 0 0 0 =.=.=.=.=.=.=.=.=.=.=.=.=.=.=.=.=.=.=.=.=.",
"=.=.=.=.=.=.=.=.=.0 0 0 0 0 q &.*.*.*.*.*.*.*.*.*.*.&.&   o _ *.*.*.,       # 0 0 0 0 0 0 0 0 0 =.=.=.=.=.=.=.=.=.=.=.=.=.=.=.=.",
"=.=.=.=.=.=.=.=.=.0 0 0 0 0 0 ~ *.*.*.*.*.*.*.*.*.*.*.d   U *.*.*.*.Z     O 0 0 0 : 4 8 0 0 0 0 0 0 0 0 0 0 =.=.=.=.=.=.=.=.=.=.",
"=.=.=.=.=.=.=.=.=.0 0 0 0 0 0 M *.*.*.*.*.*.*.*.*.*.*.^ N *.*.*.*.*.h   X 8 0 0 0 =     . # ; 4 8 0 0 0 0 0 0 0 0 0 =.=.=.=.=.=.",
"=.=.=.=.=.=.=.=.=.=.0 0 0 0 0 q %.*.*.*.*.*.*.*.*.*.*.*.*.*.*.*.*.U   . 7 0 0 0 0 5               . # - 4 7 0 0 0 0 =.=.=.=.=.=.",
"=.=.=.=.=.=.=.=.=.=.0 0 0 0 0 0 ! *.*.*.*.*.*.*.*.*.*.*.*.*.*.*.) o . 6 0 0 0 0 0 0 .                       . # 7 0 0 =.=.=.=.=.",
"=.=.=.=.=.=.=.=.=.=.0 0 0 0 0 0 a *.*.*.*.*.*.*.*.*.*.*.*.*.*...@   4 0 0 0 0 0 0 0 -                           = 0 0 =.=.=.=.=.",
"=.=.=.=.=.=.=.=.=.=.=.0 0 0 0 3 . @.*.*.*.*.*.*.*.*.*.*.*.*.@.>   : 0 0 0 0 0 0 0 0 4           o 9             . 0 0 =.=.=.=.=.",
"=.=.=.=.=.=.=.=.=.=.=.0 0 0 5     F *.*.*.*.*.*.*.*.*.*.*.&.e   - 0 0 0 0 0 0 0 0 0 0 .       9 | +..             4 0 0 =.=.=.=.",
"=.=.=.=.=.=.=.=.=.=.=.0 0 0 ; # . e *.*.*.*.*.*.*.*.*.*.*.{   # 0 0 0 0 0 0 0 0 0 0 0 =   + D *.*.*.e             = 0 0 =.=.=.=.",
"=.=.=.=.=.=.=.=.=.=.=.0 0 0 0 0 0 8 @.*.*.*.*.*.*.*.*.*.*.*.1 0 0 0 0 0 0 0 0 0 0 0 0 6 t +.*.*.*.*.F             . 0 0 =.=.=.=.",
"=.=.=.=.=.=.=.=.=.=.0 0 0 7 8 0 0 0 R *.*.*.*.*.*.*.*.*.*.*.H 0 0 0 0 0 0 0 0 0 0 0 y ( *.*.*.*.*.*.@.o             4 0 0 =.=.=.",
"=.=.=.=.=.=.=.=.=.0 0 0 0 =   X $ : u *.*.*.*.*.*.*.*.*.*.*.X.0 0 0 0 0 0 0 0 0 0 G %.*.*.*.*.*.*.*.*.r             = 0 0 =.=.=.",
"=.=.=.=.=.=.=.=.0 0 0 0 0 6           +.*.*.*.*.*.*.*.*.*.*.*.z 0 0 0 0 0 0 0 c X.*.*.*.*.*.*.*.*.*.*.Y             . 0 0 =.=.=.",
"=.=.=.=.=.=.=.=.0 0 0 0 0 0 .       +  .*.*.*.*.*.*.*.*.*.*.*.L 0 0 0 0 0 q I *.*.*.*.*.*.*.*.*.*.*.*. .              3 0 0 =.=.",
"=.=.=.=.=.=.=.0 0 0 0 0 0 0 -     . E *.*.*.*.*.*.*.*.*.*.*.*.O.0 0 0 0 m +.*.*.*.*.*.*.*.*.*.*.*.*.D @               $ 0 0 =.=.",
"=.=.=.=.=.=.0 0 0 0 0 0 0 0 6     S *.*.*.*.*.*.*.*.*.*.*.*.*.*.x 0 y ~ *.*.*.*.*.*.*.*.*.*.*.*.| 9                   . 0 0 =.=.",
"=.=.=.=.=.0 0 0 0 0 0 0 0 0 0 X d *.*.*.*.*.*.*.*.*.*.*.*.*.*.*.P C %.*.*.*.*.*.*.*.*.*.*.*.%.j .                       3 0 0 =.",
"=.=.=.=.0 0 0 0 0 0 0 0 0 0 0 p &.*.*.*.*.*.*.*.*.*.*.*.*.*.*.*.&.*.*.*.*.*.*.*.*.*.*.*.*.Q > .                         # 0 0 =.",
"=.=.=.0 0 0 0 0 0 0 0 0 0 0 k %.*.*.*.*.}  .*.*.*.*.*.*.*.*.*.*.*.*.*.*.*.*.*.*.*.*.*.+.i                                 0 0 =.",
"=.=.0 0 0 0 0 0 0 0 0 0 0 0 w &.*.*.*.+.> A *.*.*.*.*.*.*.*.*.*.*.*.*.*.*.*.*.*.*.*.R &                                 O 8 0 0 ",
"=.0 0 0 0 0 0 0 0 0 0 0 0 0 0 ] *.*.%.9   > *.*.*.*.*.*.*.*.*.*.*.*.*.*.*.*.*.*.O.v X                                 . 8 0 0 =.",
"=.0 0 0 0 0 0 0 0 0 0 0 0 0 0 G *.*.r       ' *.*.*.*.*.*.*.*.*.*.*.*.*.*.*.&.L 0 $                                 . 7 0 0 =.=.",
"0 0 0 0 0 0 0 0 0 0 0 0 0 0 0 w *.j         j *.*.*.*.*.*.*.*.*.*.*.*.*.*.[ z 0 -                                   4 0 0 =.=.=.",
"=.0 0 0 0 0 0 0 0 0 0 0 0 0 0 0 V -         > *.*.*.*.*.*.*.*.*.*.*.*.@.C 0 0 :                                   3 0 0 =.=.=.=.",
"=.0 0 0 0 0 0 0 0 0 0 0 0 0 0 0 0 7           ` *.*.*.*.*.*.*.*.*.*.~ w 0 0 3                                   ; 0 0 0 =.=.=.=.",
"=.=.0 0 0 0 0 0 0 0 0 0 0 0 0 0 0 8           g *.*.*.*.*.*.*.*.O.n 0 0 0 5                                   = 0 0 0 =.=.=.=.=.",
"=.=.0 0 0 0 0 0 0 0 0 0 0 0 0 0 0 X           * *.*.*.*.*.*.&.A - 0 0 0 7 .                                 # 0 0 0 =.=.=.=.=.=.",
"=.=.0 0 0 0 0 0 0 0 0 0 0 0 0 0 #               ^ *.*.*.*._ 2     8 0 0 O                                 X 0 0 0 =.=.=.=.=.=.=.",
"=.=.=.0 0 0 0 0 0 0 0 0 0 0 0 =                 f *.*.@.d         7 0 0 0 8 4 ; $ .                     X 8 0 0 =.=.=.=.=.=.=.=.",
"=.=.=.0 0 0 0 0 0 0 0 q 0 0 : .                 & &.T *         3 0 0 0 0 0 0 0 0 0 8 4 : = .         . 7 0 0 =.=.=.=.=.=.=.=.=.",
"=.=.=.0 0 0 0 0 0 0 0 0 0 3                       2           ; 0 0 0 =.=.=.0 0 0 0 0 0 0 0 0 8 4 : $ 4 0 0 =.=.=.=.=.=.=.=.=.=.",
"=.=.=.=.0 0 0 0 0 0 0 0 6                                   = 0 0 0 =.=.=.=.=.=.=.=.=.0 0 0 0 0 0 0 0 0 0 =.=.=.=.=.=.=.=.=.=.=.",
"=.=.=.=.0 0 0 0 0 0 0 7 .                                 $ 0 0 0 =.=.=.=.=.=.=.=.=.=.=.=.=.=.=.0 0 0 0 0 =.=.=.=.=.=.=.=.=.=.=.",
"=.=.=.=.0 0 0 0 0 0 8 X                                 O 0 0 0 =.=.=.=.=.=.=.=.=.=.=.=.=.=.=.=.=.=.=.=.=.=.=.=.=.=.=.=.=.=.=.=.",
"=.=.=.=.=.0 0 0 0 8 X                                 . 8 0 0 =.=.=.=.=.=.=.=.=.=.=.=.=.=.=.=.=.=.=.=.=.=.=.=.=.=.=.=.=.=.=.=.=.",
"=.=.=.=.=.0 0 0 0 #                                 . 7 0 0 =.=.=.=.=.=.=.=.=.=.=.=.=.=.=.=.=.=.=.=.=.=.=.=.=.=.=.=.=.=.=.=.=.=.",
"=.=.=.=.=.0 0 0 =                                 . 4 0 0 =.=.=.=.=.=.=.=.=.=.=.=.=.=.=.=.=.=.=.=.=.=.=.=.=.=.=.=.=.=.=.=.=.=.=.",
"=.=.=.=.=.=.0 0 7 4 - # .                         3 0 0 =.=.=.=.=.=.=.=.=.=.=.=.=.=.=.=.=.=.=.=.=.=.=.=.=.=.=.=.=.=.=.=.=.=.=.=.",
"=.=.=.=.=.=.0 0 0 0 0 0 0 7 4 - # .             : 0 0 0 =.=.=.=.=.=.=.=.=.=.=.=.=.=.=.=.=.=.=.=.=.=.=.=.=.=.=.=.=.=.=.=.=.=.=.=.",
"=.=.=.=.=.=.=.=.0 0 0 0 0 0 0 0 0 0 8 4 ; # . = 0 0 0 =.=.=.=.=.=.=.=.=.=.=.=.=.=.=.=.=.=.=.=.=.=.=.=.=.=.=.=.=.=.=.=.=.=.=.=.=.",
"=.=.=.=.=.=.=.=.=.=.=.=.=.0 0 0 0 0 0 0 0 0 0 0 0 0 =.=.=.=.=.=.=.=.=.=.=.=.=.=.=.=.=.=.=.=.=.=.=.=.=.=.=.=.=.=.=.=.=.=.=.=.=.=.",
"=.=.=.=.=.=.=.=.=.=.=.=.=.=.=.=.=.=.0 0 0 0 0 0 0 =.=.=.=.=.=.=.=.=.=.=.=.=.=.=.=.=.=.=.=.=.=.=.=.=.=.=.=.=.=.=.=.=.=.=.=.=.=.=.",
"=.=.=.=.=.=.=.=.=.=.=.=.=.=.=.=.=.=.=.=.=.=.=.=.=.=.=.=.=.=.=.=.=.=.=.=.=.=.=.=.=.=.=.=.=.=.=.=.=.=.=.=.=.=.=.=.=.=.=.=.=.=.=.=."
};
