/* XPM */
static char *_527257073277[] = {
/* columns rows colors chars-per-pixel */
"32 32 91 1 ",
"  c #3E3E3E",
". c #3F3F3F",
"X c gray25",
"o c gray26",
"O c gray28",
"+ c gray31",
"@ c #515151",
"# c #545455",
"$ c #5B5B5B",
"% c #5F5F5F",
"& c #626262",
"* c #646464",
"= c gray40",
"- c #676868",
"; c #6A6A6A",
": c #6E6E6F",
"> c #6F6F6F",
", c #717171",
"< c #737475",
"1 c #767676",
"2 c gray48",
"3 c #7C7C7C",
"4 c gray50",
"5 c #808181",
"6 c gray53",
"7 c #8B8B8B",
"8 c gray55",
"9 c #929394",
"0 c #959596",
"q c gray60",
"w c #9B9C9D",
"e c #9C9D9E",
"r c gray63",
"t c #A7A7A7",
"y c #AAAAAA",
"u c #AAABAC",
"i c gray70",
"p c #B7B7B7",
"a c #B5B7B9",
"s c #B8B9B9",
"d c #B9B9B9",
"f c #B8BABC",
"g c #BABBBD",
"h c gray",
"j c #BCBEC0",
"k c #BFC1C3",
"l c #C1C3C5",
"z c #C2C3C4",
"x c #C6C7C7",
"c c #C6C7C9",
"v c #C7C8CA",
"b c #CACACB",
"n c #CACBCD",
"m c #CDCDCD",
"M c #CCCDCE",
"N c #CECFD0",
"B c #CFCFD1",
"V c #CFD0D1",
"C c #D0D0D0",
"Z c #D0D1D2",
"A c #D2D4D5",
"S c gray84",
"D c #D6D7D8",
"F c #D7D8D9",
"G c #D8D9D9",
"H c #DADBDD",
"J c #DBDCDD",
"K c #DCDCDD",
"L c #DFDFDF",
"P c #DFE0E1",
"I c #E1E2E3",
"U c #E3E4E4",
"Y c gray90",
"T c #E6E7E8",
"R c #E7E8E8",
"E c #EAEAEA",
"W c #EBEBEC",
"Q c #ECECEC",
"! c #EFEFEF",
"~ c #EFEFF0",
"^ c #EFF0F0",
"/ c gray94",
"( c #F4F4F4",
") c #F6F7F7",
"_ c gray97",
"` c #F8F8F8",
"' c #F8F9F9",
"] c #FBFCFC",
"[ c gray99",
"{ c #FCFCFD",
"} c None",
/* pixels */
"}}}}}}}}}}}}  X.  X }}}}}}}}}}}}",
"}}}}}}}}}  X XXoXX.XXX }}}}}}}}}",
"}}}}}}} XXX,yG'[[)Sy:XX  }}}}}}}",
"}}}}}}  X8Y[[['[[[[[[Y8O X}}}}}}",
"}}}}}X &K[[[[[[[[/'[[[[K&  }}}}}",
"}}}}X 3'[[[EH[[[LNNI[[[[_2. }}}}",
"}}} X3[[[~Zm_n%GmmS[[[![][1  }}}",
"}}  &'[[INVC112rNZ_[[IcK[[_&X }}",
"}} XK[[INx5%b[z2N)[[TcvV[[[KO }}",
"}XX8[[!VN@y'[[)@W[[~vcn'[[[[8  }",
"}XXY[[ZNG,I[[[[;pp)ncv/[[R'[YXX}",
"}X,[[YNZ'yu[[[[rX2NccT[[/cI[[, }",
"  y[[DZ)[K1][[[Gx@cbI[[)xzm[[yX ",
" XS['V![[/@'[[[[[2yS[[[muzU[[GX ",
" X/[/Y[['n:m[[[[]4w'[[s$+F[[[/ X",
"X [[)[[[Zb9q[[[[n*_]!6*Z:I[[[[X ",
"XX[[[[[Dccb*[[[[Y;'y$p[[ri[_][XX",
" X/[[[LccSE+[[[['&%0_[[[S3HE[/XX",
"X S[[EccN'2h[[[[[sI[[[')0#g_[SX ",
" Xu[[Zcn'[0h[[[[[[[[[[p$0az[[tX ",
"}X,[[Yn~[[h7y[[[[[[[S*6IkgL[[, }",
"} XE[[E[[~gO K[[[[Q5;S]cgj][EX }",
"}  8[[]]_zl<7y]]'r$s[[SgfI[[8  }",
"}}XXK[[]MkkLG1[h$3![[KggA[[KX }}",
"}} X&_][GzS[[$:;uW[[TggG[['&  }}",
"}}}  2[[[~[[]7egK[[/gjY[[[2X }}}",
"}}}}  2_[[[[GggN[['nJ'[['1X }}}}",
"}}}}}  &K[[[[)E[[[[[[[[G%X }}}}}",
"}}}}}} XX7Y[[[[[[[[[[Y8X..}}}}}}",
"}}}}}}}   X:yZ/[[/Su:XX  }}}}}}}",
"}}}}}}}}} X XX........ }}}}}}}}}",
"}}}}}}}}}}}}    ..  }}}}}}}}}}}}"
};
