/* XPM */
static char *_527256704913[] = {
/* columns rows colors chars-per-pixel */
"16 16 44 1 ",
"  c #2AB543",
". c #29B642",
"X c #29B643",
"o c #2AB642",
"O c #2AB643",
"+ c #31B849",
"@ c #34B94C",
"# c #35BA4D",
"$ c #3BBC52",
"% c #40BD56",
"& c #46BF5B",
"* c #4DC261",
"= c #4FC263",
"- c #59C66C",
"; c #62C974",
": c #62C975",
"> c #6ACC7B",
", c #6CCC7D",
"< c #70CE81",
"1 c #75D086",
"2 c #7CD28B",
"3 c #7CD28C",
"4 c #81D390",
"5 c #8DD89A",
"6 c #99DCA5",
"7 c #A2DFAD",
"8 c #A5E0B0",
"9 c #A6E0B1",
"0 c #B1E4BA",
"q c #BAE7C2",
"w c #C2EAC9",
"e c #C3EACA",
"r c #C5EBCC",
"t c #C7EBCD",
"y c #D6F0DA",
"u c #E8F7EB",
"i c #ECF8EE",
"p c #F0F9F2",
"a c #F6FBF7",
"s c #F8FCF8",
"d c #FAFDFA",
"f c #FBFDFB",
"g c #FEFEFE",
"h c None",
/* pixels */
"hhhhhO.OO.Ohhhhh",
"hhh.OOOOOOOO.hhh",
"hh.OOOOOOOOOOOhh",
"h.OO.*e#OOOOOO.h",
"hOOO<fg>OOOOOOOh",
"OOOO:gg7%OOOOOOO",
".OOO+ags9.OOOOO.",
"OOOO.egg3OO&-OOO",
"OOOOO5gg1#6sqOOO",
".OOOOtggyugp4OO.",
"OOOOO3iggg8$OOOO",
"hOOOOO0ge=..OOOh",
"h.OOOO:,OOOOOO.h",
"hhOOOO. OOOOOOhh",
"hhh.OOOOOOOO.hhh",
"hhhhhO.OO.Ohhhhh"
};
