/* XPM */
static char *_527257081857[] = {
/* columns rows colors chars-per-pixel */
"128 128 53 1 ",
"  c #3F3F3F",
". c gray26",
"X c #4B4B4B",
"o c #535353",
"O c #575758",
"+ c gray36",
"@ c #646464",
"# c #6C6C6C",
"$ c #747474",
"% c #7B7B7B",
"& c #7E8081",
"* c #848484",
"= c #878889",
"- c #8B8B8B",
"; c #8E8F90",
": c #8E9090",
"> c gray58",
", c #97989A",
"< c gray61",
"1 c #9E9FA0",
"2 c #9FA0A1",
"3 c #A3A3A4",
"4 c #A7A7A9",
"5 c #A6A8A9",
"6 c #ACACAC",
"7 c #AFB0B1",
"8 c #B4B4B4",
"9 c #B6B7B8",
"0 c #B6B8BA",
"q c #B9BABC",
"w c #BDBEC0",
"e c #BFC1C2",
"r c #C2C3C3",
"t c #C6C7C9",
"y c #C7C8CA",
"u c #CCCDCD",
"i c #CECFD0",
"p c #CFD0D1",
"a c #D3D3D4",
"s c #D6D7D8",
"d c #D7D8D9",
"f c gainsboro",
"g c #DEDFE0",
"h c #DFE0E1",
"j c #E3E3E4",
"k c #E7E7E8",
"l c #E7E8E8",
"z c #ECECEC",
"x c #EFEFF0",
"c c #EFF0F0",
"v c #F4F4F4",
"b c white",
"n c None",
/* pixels */
"nnnnnnnnnnnnnnnnnnnnnnnnnnnnnnnnnnnnnnnnnnnnnnnnnnnnnnnn.               nnnnnnnnnnnnnnnnnnnnnnnnnnnnnnnnnnnnnnnnnnnnnnnnnnnnnnnn",
"nnnnnnnnnnnnnnnnnnnnnnnnnnnnnnnnnnnnnnnnnnnnnnnnnn             .             nnnnnnnnnnnnnnnnnnnnnnnnnnnnnnnnnnnnnnnnnnnnnnnnnnn",
"nnnnnnnnnnnnnnnnnnnnnnnnnnnnnnnnnnnnnnnnnnnnnn   .     .   .        .       .     nnnnnnnnnnnnnnnnnnnnnnnnnnnnnnnnnnnnnnnnnnnnnn",
"nnnnnnnnnnnnnnnnnnnnnnnnnnnnnnnnnnnnnnnnnnn.                    .        .         . nnnnnnnnnnnnnnnnnnnnnnnnnnnnnnnnnnnnnnnnnnn",
"nnnnnnnnnnnnnnnnnnnnnnnnnnnnnnnnnnnnnnnn   .       . .        .         .              nnnnnnnnnnnnnnnnnnnnnnnnnnnnnnnnnnnnnnnnn",
"nnnnnnnnnnnnnnnnnnnnnnnnnnnnnnnnnnnnnn.                  .          . .       .           nnnnnnnnnnnnnnnnnnnnnnnnnnnnnnnnnnnnnn",
"nnnnnnnnnnnnnnnnnnnnnnnnnnnnnnnnnnnn                             . .            .    .      nnnnnnnnnnnnnnnnnnnnnnnnnnnnnnnnnnnn",
"nnnnnnnnnnnnnnnnnnnnnnnnnnnnnnnnnn       .    . .    .     ...XXXX..       .          .   .   nnnnnnnnnnnnnnnnnnnnnnnnnnnnnnnnnn",
"nnnnnnnnnnnnnnnnnnnnnnnnnnnnnnnn                     X#-6tfzbbbbbbbvzfr6-#X          .          nnnnnnnnnnnnnnnnnnnnnnnnnnnnnnnn",
"nnnnnnnnnnnnnnnnnnnnnnnnnnnnnnn      . . .       o*9jbbbbbbbbbbbbbbbbbbbbbbf8*X         .    .    nnnnnnnnnnnnnnnnnnnnnnnnnnnnnn",
"nnnnnnnnnnnnnnnnnnnnnnnnnnnnn                 @3fbbbbbbbbbbbbbbbbbbbbbbbbbbbbbbf<@                 nnnnnnnnnnnnnnnnnnnnnnnnnnnnn",
"nnnnnnnnnnnnnnnnnnnnnnnnnnn   .  .        .o,jbbbbbbbbbbbbbbbbbbbbbbbbbbbbbbbbbbbbf,o     .          nnnnnnnnnnnnnnnnnnnnnnnnnnn",
"nnnnnnnnnnnnnnnnnnnnnnnnnn      .      ..$rbbbbbbbbbbbbbbbbbbbbbbbbbbbbbbbbbbbbbbbbbbr#.        .     nnnnnnnnnnnnnnnnnnnnnnnnnn",
"nnnnnnnnnnnnnnnnnnnnnnnnn      .      .*fbbbbbbbbbbbbbbbbbbbbbbbbbbbbbbbbbbbbbbbbbbbbbbf*. .   .       nnnnnnnnnnnnnnnnnnnnnnnnn",
"nnnnnnnnnnnnnnnnnnnnnnn            ..=jbbbbbbbbbbbbbbbbbbbbbbbbbbbbbbbbbbbbbbbbbbbbbbbbbbj=.             nnnnnnnnnnnnnnnnnnnnnnn",
"nnnnnnnnnnnnnnnnnnnnnn  .  .       $fbbbbbbbbbbbbbbbbbbbbbbbbbbbbbbbbbbbbbbbbbbbbbbbbbbbbbbf$.     . .   .nnnnnnnnnnnnnnnnnnnnnn",
"nnnnnnnnnnnnnnnnnnnnn       .   .orbbbbbbbbbbbbbbbbbbbbbbbbbbbbbbbbbbbbbbbbbbbbbbbbbbbbbbbbbbro       .    nnnnnnnnnnnnnnnnnnnnn",
"nnnnnnnnnnnnnnnnnnnn  .        .=vbbbbbbbbbbbbbbbbbbbbbbbbbbbbbbbbbbbbbbbbbbbbbbbbbbbbbbbbbbbbv=  .         nnnnnnnnnnnnnnnnnnnn",
"nnnnnnnnnnnnnnnnnnn           XtbbbbbbbbbbbbbbbbbbbbbbbbbbbbbbbbbbbbzzvbbbbbbbbbbbbbbbbbbbbbbbbbeX      .    nnnnnnnnnnnnnnnnnnn",
"nnnnnnnnnnnnnnnnnn    .  .   #zbbbbbbbbbbbbbbbbbbbbbvzbbbbbbbbbbbbbjuuuypfzvbbbbbbbbbbbbbbbbbbbbbk@ .      .  nnnnnnnnnnnnnnnnnn",
"nnnnnnnnnnnnnnnnn   .       ;bbbbbbbbbbbbbbbbbbbbzhauzbbbbbbbbbbbbziuuuuuuuupfzbbbbbbbbbbbbbbbbbbbv*  .        nnnnnnnnnnnnnnnnn",
"nnnnnnnnnnnnnnnn          .6bbbbbbbbbbbbbbbbbbvjuupuzbbbbbbbbbbbbvpuuuuiiuuiuuyvbbbbbbbbbbbbbbbbbbbb1      . .  nnnnnnnnnnnnnnnn",
"nnnnnnnnnnnnnnn          .ebbbbbbbbbbbbbbbbbzfuippujbbbbbbbbbbbbbuuuuuuuuuuuuulbbbbbbbbbbbbbbbbbbbbbb9.          nnnnnnnnnnnnnnn",
"nnnnnnnnnnnnnnn  .    . Xubbbbbbbbbbbbbbbbvdaupiuudbbbbbbbbzbbbbsuuiuuiuuuuuujbbbbbbbbbbbbbbbbbbbbbbbbr..         nnnnnnnnnnnnnn",
"nnnnnnnnnnnnnn        ..ubbbbbbbbbbbbbbbvfiiiiiipabbbbbbbf##bbbfuuuuiuuuuiuudbbbbbbbbbbbbbbbbbbbbbbbbbbt...    .  nnnnnnnnnnnnnn",
"nnnnnnnnnnnnn   .    ..ybbbbbbbbbbbbbbbjpiiiiiiiavbbbbbz*  .vbjuuuuuuuuiuuuabbbbbbbbbbbbbbbbbbbbbbbbbbbbq.         nnnnnnnnnnnnn",
"nnnnnnnnnnnn      .  .0bbbbbbbbbbbbbbvfippiiiiiicbbbbb6X    uxuuiuuiuuuuuupvbbbbbbbbbbbbjuxbbbbbbbbbbbbbb8      .   nnnnnnnnnnnn",
"nnnnnnnnnnn  .       3bbbbbbbbbbbbbbzuuiipiiiiijbbbbu+      =puuuuuuuuuuiucbbbbbbbbbbbbxtttjbbbbbbbbbbbbbb< .        nnnnnnnnnnn",
"nnnnnnnnnnn        .*bbbbbbbbbbbbbbhiiiiiiiippgbbbj$     .  Ouiuuuuuuuuuulbbbbbbbbbbbbvuttttdbbbbbbbbbbbbbb*       . nnnnnnnnnnn",
"nnnnnnnnnn    .    @bbbbbbbbbbbbbbauiiiiiiiipdbbv,.    X8,  .ruuiuiuuiuuhbbbbbbbbbbbbbittttttivbbbbbbbbbbbbv@.        nnnnnnnnnn",
"nnnnnnnnnn       .Xhbbbbbbbbbbbbvsiiiiiiiiiipvb8o    .>vbi   ,uuuuiuuiusbbbbbbbbbbbbbattttttttuvbbbbbbbbbbbbj.        nnnnnnnnnn",
"nnnnnnnnn  .      9bbbbbbbbbbbbvpiiiiiiiiiipvp@     $hbbbv.  $uuuuuuuuabbbbbbbbbbbbbfrtttttttttyvbbbbbbbbbbbbq  .      nnnnnnnnn",
"nnnnnnnn   .    .%bbbbbbbbbbbbvaiiiiiiiiiiuf*     Otbbbbbb$  .yuuuuuuuvbbbbbbbbbbbbjttttttttttttabbbbbbbbbbbbb*         nnnnnnnn",
"nnnnnnnn        Xzbbbbbbbbbbbvapiiiiipiipy=.    X6bbbbbbbb6   8uuuiuuvbbbbbbbbbbbbxttttttttttttuvbbbbbbbbbbbbbco        nnnnnnnn",
"nnnnnnn       . 9bbbbbbbbbbbbaiiiiiiupiu3X     *zbbbbbbbbbj   =uiuuukbbbbbbbbbbbbvuttttttttttttcbbbbbbbbbbbbbbbq  . .   .nnnnnnn",
"nnnnnnn .      #bbbbbbbbbbbbfiiiiiiipu9+     #dbbbbbbbbbbbbO  @uuuugbbbbbbbbbbbbbittttttttttttzbbbbbbbbbbbbbbbbb$        nnnnnnn",
"nnnnnn        .sbbbbbbbbbbbjiiiiiiiir%   . o0bbbbbbbbbbbbbb-   ruudbbbbbbbbbbbbbattttttttttttfbbbbbbbbbbbbbbbbbbf.        nnnnnn",
"nnnnnn  .     &bbbbbbbbbbbviiiiiiipy.    .<vbbbbbbbbbbbbbbbr   3iabbbbbbbbbbbbbfttttttttttttabbbbbbbbbbbbbbbbbbbb*  . .   nnnnnn",
"nnnnn     .  .jbbbbbbbbbbbpiiiiiiiii+   %kbbbbbbbbbbbbbbbbbv   %uvbbbbbbbbbbbbkttttttttttttubbbbbbbbbbbbbbbbbbbbbj.        nnnnn",
"nnnnn .      *bbbbbbbbbbbjuiiiiiiiii=  .vbbbbbbbbbbbbbbbbbbb#  Xzbbbbbbbbbbbbzttttttttttttuvbbbbbbbbbbbbbbbbbbbbbb=.     . nnnnn",
"nnnn       . gbbbbbbbbbbviiiiiiiiiiu1   abbbbbbbbbbbbbbbbbbb>   jbbb,fbbbbbbvytttttttttttyvbbbbbbbbbbbbbbbbbbbbbbbf         nnnn",
"nnnn  .     $bbbbbbbbbbbdiiiiiiiiiisj   1bbbbbbbbbbbbbbbbbbbp   7bb8 3bbbbbbuttttttttttttkbbbbbbbbbbbbzabbbbbbbbbbb$.       nnnn",
"nnnn        ybbbbbbbbbbziiiiiiiiiiavb#  #bbbbbbbbbbbbbbbbbbbbX  $bu. $bbbbbattttttttttttfbbbbbbbbbbbbvtrjbbbbbbbbbbt     .  nnnn",
"nnn     .  Obbbbbbbbbbbsiiiiiiiiiicbb3   vbbbbbbbbbbbbbbbbbbb%  XfX  .vbbbfttttttttttttabbbbbbbbbbbbbtretbbbbbbbbbbbO .      nnn",
"nnn.      .<bbbbbbbbbbziiiiiiiiiikbbbf   ebbbbbbbbbbbbbbbbbbb8   X    qbbkttttttttttttibbbbbbbbbbbbbprrrrjbbbbbbbbbb<.       nnn",
"nnn    ..  jbbbbbbbbbbdiiiiiiiiijbbbbbo  =bbbbbbbbbbbbbbbbbbbz        -bxytttttttttttyvbbbbbbbbbbbbferrerubbbbbbbbbbj.  .    nnn",
"nnn       @bbbbbbbbbbviiiiiiiiidbbbbbb*  obbbbbbbbbbbbbbbbbbbbO       Ovyttttttttttttxbbbbbbbbbbbbjrrrerrrvbbbbbbbbbb@        nn",
"nn   .    3bbbbbbbbbbjiiiiiiiiabbbbbbb9   jbbbbbbbbbbbbbbbbbbb>   .$   rttttttttttttkbbbbbbbbbbbbzrrrrrrrrfbbbbbbbbbb3    .   nn",
"nn   .    fbbbbbbbbbbaupiiiiipvbbbbbbbz.  3bbbbbbbbbbbbbbbbbbby   ey   ,tttttttttttfbbbbbbbbbbbbvrrrrrrrretbbbbbbbbbbf.  .    nn",
"nn      .Xbbbbbbbbbbzpiiiiiiicbbbbbbbbb@  $bbbbbbbbbbbbbbbbbbbb. <bv.  #tttttttttysbbbbbbbbbbbbbyrrwrrrwrrrzbbbbbbbbbbo       nn",
"n.       *bbbbbbbbbbjiiiiiiuzbbbbbbbbbb,  Xvbbbbbbbbbbbbbbbbbbb$=bbb$  .tttttttttubbbbbbbbbbbbbarrrrwrrrrerdbbbbbbbbbb=    . . n",
"n    .   6bbbbbbbbbbaiiiiiifbbbbbbbbbbby   ubbbbbbbbbbbbbbbbbbbuvbbb4   7tttttttyvbbbbbbbbbbbbferrrrrrrrrrrubbbbbbbbbb9        n",
"n        sbbbbbbbbbvuiiiiifbbbbbbbbbbbbv   ,bbbbbbbbbbbbbbbbbbbbbbbbf   -tttttttzbbbbbbbbbbbbkrrrrrrrererrtvbbbbbbbbbbj   .    n",
"n      ..bbbbbbbbbbliiiiiabbbbbbbbbbbbbfO  @bbbbbbbbbbbbbbbbbbbbbbbbbO  @tttttyjbbbbbbbbbbbbvrrrrrrrrrrrerzbbbbbbbbbbbbX       n",
"n       @bbbbbbbbbbfiiiiavbbbbbbbbbbbbzt%  .zbbbbbbbbbbbbbbbbbbbbbbbb=  .rttttfbbbbbbbbbbbbvterre8,rrerrrjbbbbbbbbbbbbb#       n",
"n   .   *bbbbbbbbbbaiiiicbbbbbbbbbbbbvtt3   qbbbbbbbbbbbbbbbbbbbbbbbbq   1tttabbbbbbbbbbbbburrr9$.Orrrrrfbbbbbbbbbbbbbb=.    . n",
"      . <bbbbbbbbbbuiiilbbbbbbbbbbbbvuttr.  =bbbbbbbbbbbbbbbbbbbbbbbbx   $ttubbbbbbbbbbbbbsrrw=.   9wrrabbbbbbbbbbbbbbb4        ",
"   .    9bbbbbbbbbvuiuhbbbbbbbbbbbbbitttt@  obbbbbbbbbbbbbbbbbbbbbbbbx.  Otuvbbbbbbbbbbbbhew1o     >rruvbbbbbbbbbbbbbbbq     .  ",
"        ybbbbbbbbbzaudbbbbbbbbbbbbbattttt=   fbbbbbbbbbbbbbbbbbbbbbbv@   #tzbbbbbbbbbbbbzr7#       #ryvbbbbbbbbbbbbbbbbs    .   ",
"      . fbbbbbbbbbliabbbbbbbbbbbbbftttttt4   4bbbbbbbbbbbbbbbbbbbbbb*   Oejbbbbbbbbbbbbvr*.    .o  .rzbbbbbbbbbbbbbbbbbj  .     ",
"     .  zbbbbbbbbbjivbbbbbbbbbbbbzttttttttX  $bbbbbbbbbbbbbbbbbbbbb6   .9dbbbbbbbbbbbbv1o     %k1   ubbbbbbbbbbbbbbbbbbz .      ",
"        vbbbbbbbbbjxbbbbbbbbbbbbvttttttttt#  .bbbbbbbbbbbbbbbbbbbby    2abbbbbbbbbbbbh$     @abbf   6bbbbbbbbbbbbbbbbbbb        ",
" .     .bbbbbbbbbbvbbbbbbbbbbbbvyttttttttt>   ubbbbbbbbbbbbbbbbbbb3   -ubbbbbbbbbbbv>.    X7bbbbbX  %bbbbbbbbbbbbbbbbbbb.       ",
"       .bbbbbbbbbbbbbbbbbbbbbbbitttttttttt0   ,bbbbbbbbbbbbbbbbbbba   >vbbbbbbbbbb8X    .>cbbbbbb*  Xbbbbbbbbbbbbbbbbbbb.   .   ",
"    .  .bbbbbbbbbbbbbbbbbbbbbbdtttttttttttyo  @bbbbbbbbbbbbbbbbbbbbX  $bbbbbbbbbi@     $jbbbbbbbbq   sbbbbbbbbbbbbbbbbbb..  .   ",
"       .bbbbbbbbbbbbbbbbbbbbbgtttttttttttts-   xbbbbbbbbbbbbbbbbbbb%  .bbbbbbbk*     Oybbbbbbbbbbx   <bbbbbbbbbbbbbbbbbb.       ",
" . .    vbbbbbbbbbbbbbbbbbbbzttttttttttttuvu   qbbbbbbbbbbbbbbbbbbb8   abbbbv<X    X6vbbbbbbbbbbbb@  #bbbbbbvabbbbbbbbbv .      ",
"        zbbbbbbbbbbbbbbbbbbxttttttttttttyvbv   *bbbbbbbbbbbbbbbbbbbj   3bbveO    .=vbbbbbbbbbbbbbb,  .vbbbbveabbbbbbbbbv        ",
"    .   fbbbbbbbbbbbbbbbbbvuttttttttttttcbbb$  XbbbbbbbbbbbbbbbbbbbbO  #ba#     #fbbbbbbbbbbbbbbbbp   ebbbbuqdbbbbbbbbbj      . ",
"        ubbbbbbbbbbbbbbbbbittttttttttttjbbbb%   fbbbbbbbbbbbbbbbbbbb-   %     oqbbbbbbbbbbbbbbbbbbb.  -bbbpqqgbbbbbbbbbs  .     ",
"       .0bbbbbbbbbbbbbbbbdttttttttttttfbbbb7   Xvbbbbbbbbbbbbbbbbbbbt       X3vbbbbbbbbbbbbbbbbbbbb$  obbgqq0lbbbbbbbbbq    .   ",
"  .     3bbbbbbbbbbbbbbbgttttttttttttabbbbi.  .ibbbbbbbbbbbbbbbbbbbbc.     *zbbbbbbbbbbbbbbbbbbbbbb4   fzqqqqvbbbbbbbbb6        ",
"n       *bbbbbbbbbbbbbbzttttttttttttubbbbjX   6bbbbbbbbbbbbbbbbbbbbbb@   @abbbbbbbbbbbbbbbbbbbbbbbba   :q0qqebbbbbbbbbb- .   . n",
"n    .  @bbbbbbbbbbbbbvttttttttttttyvbbbv+   =bbbbbbbbbbbbbbbbbbbbbbb, o9bbbbbbbbbbbbbbbbbbbbbbbbb6X   @qqqqpbbbbbbbbbb@       n",
"n       .bbbbbbbbbbbbvyttttttttttttzbbbbf   @bbbbbbbbbbbbbbbbbbbbbbbbf<vbbbbbbbbbbbbbbbbbbbbbbbbyO     #0qq0hbbbbbbbbbb.       n",
"n .  .  .fbbbbbbbbbbbittttttttttttjbbbbbbX  %bbbbbbbbbbbbbbbbbbbbbbbbbbbbbbbbbbbbbbbbbbbbbbbbbj$     o>qqqqqcbbbbbbbbbf    .   n",
"n      . 8bbbbbbbbbbdttttttttttttfbbbbbbb*  .bbbbbbbbbbbbbbbbbbbbbbbbbbbbbbbbbbbbbbbbbbbbbbbv>.    X=9qqqqqebbbbbbbbbb6  .  .  n",
"n        *bbbbbbbbbbftttttttttttabbbbbbbb8   abbbbbbbbbbbbbbbbbbbbbbbbbbbbbbbbbbbbbbbbbbbbb9X     -fqqqqq0qpbbbbbbbbbb%        n",
"nn       Obbbbbbbbbbxtttttttttyuvbbbbbbbbz   <bbbbbbbbbbbbbbbbbbbbbbbbbbbbbbbbbbbbbbbbbbbi@     #fveqqq9q0qlbbbbbbbbbbX       nn",
"nn  .     hbbbbbbbbbbuttttttttyvbbbbbbbbbb+  @bbbbbbbbbbbbbbbbbbbbbbbbbbbbbbbbbbbbbbbbbk&     oqbvy9qqqqqqwbbbbbbbbbbs      . nn",
"nn  .     3bbbbbbbbbbgttttttttlbbbbbbbbbbb>   zbbbczbbbbbbbbbbbbbbbbbbbbbbbbbbbbbbbbbv3.    .3bbbu0w00qqqqabbbbbbbbbb<.  .    nn",
"nn        #bbbbbbbbbbvtttttttgbbbbbbbbbbbbt   qbbb$6bbbbbbbbbbbbbbbbbbbbbbbbbbbbbbbbqO     &zbbbsw00ww0qqqxbbbbbbbbbb@       nnn",
"nnn    .. .jbbbbbbbbbbatttttfbbbbbbbbbbbbbr.  =bb= $bbbbbbbbbbbbbbbbbbbbbbbbbbbbbbf#     @pbbbbj00w000q0qtbbbbbbbbbbz      . nnn",
"nnn        3bbbbbbbbbbzrtttabbbbbbbbbbbbbpe+  ob3   bbbbbbbbbbbbbbbbbbbbbbbbbbbbz-     X0bbbbbz00w000wqqqlbbbbbbbbbb3        nnn",
"nnn       .Obbbbbbbbbbbuttuvbbbbbbbbbbbbdwr*   1    abbbbbbbbbbbbbbbbbbbbbbbbbb3.    .<vbbbbbvww00qqqq00tbbbbbbbbbbb+       nnnn",
"nnnn     .  ubbbbbbbbbbzttvbbbbbbbbbbbbjerw5        ,bbbbbbbbbbbbbbbbbbbbbbbbtO     $jbbbbbbve00w0w0q0qqkbbbbbbbbbbu.  . .  nnnn",
"nnnn .      %bbbbbbbbbbbalbbbbbbbbbbbbzeeeew        @bbbbbbbbbbbbbbbbbbbbbbh$     +ubbbbbbbbiw0q0w00qqqybbbbbbbbbbb$        nnnn",
"nnnn         jbbbbbbbbbbbbbbbbbbbbbbbvreeerq@        xbbbbbbbbbbbbbbbbbbbc>     X6bbbbbbbbbs000w000wqqqzbbbbbbbbbbf.       nnnnn",
"nnnnn    .   =bbbbbbbbbbbbbbbbbbbbbbvyeeeeee:   o>   8bbbbbbbbbbbbbbbbbb8X     -xbbbbbbbbbhqw000w0w00wabbbbbbbbbbb*  .   . nnnnn",
"nnnnn        .jbbbbbbbbbbbbbbbbbbbbbpeeeeeee8  .7u   *bbbbbbbbbbbbbbbbu@     $fbbbbbbbbbbzqq00w0q000qevbbbbbbbbbbj.        nnnnn",
"nnnnnn     .  *bbbbbbbbbbbbbbbbbbbbdeeeeerweeo.3yb#  Xbbbbbbbbbbbbbbj%     orbbbbbbbbbbbcwqq0w0w00wwqzbbbbbbbbbbb*.       nnnnnn",
"nnnnnn .      .fbbbbbbbbbbbbbbbbbbjeeeeeeeeee%>rvb3   fbbbbbbbbbbbv<     .,vbbbbbbbbbbbbrqqqqq00w000dbbbbbbbbbbbj.        nnnnnn",
"nnnnnnn      . #bbbbbbbbbbbbbbbbbzeeeeeeeeeee0ecbbs   3bbbbbbbbbb0X     #ebbbbbbbbbbbbbyqqqq0ww0qqqubbbbbbbbbbbb$      . nnnnnnn",
"nnnnnnn    .    0bbbbbbbbbbbbbbbvreeeeeeeeeeeelbbbbX  $bbbbbbbbs#     +3rvbbbbbbbbbbbbsqqqq00000qqevbbbbbbbbbbbr         nnnnnnn",
"nnnnnnnn        Xzbbbbbbbbbbbbbbyeeeeeeeeeeeefbbbbb*  .vbbbbbz*     X>0wvbbbbbbbbbbbbj0qqq0qwqqwqwvbbbbbbbbbbbvO  . .   nnnnnnnn",
"nnnnnnnn       . *bbbbbbbbbbbbbdeeeeeeeeeeeeabbbbbb8   rbbbb3.     %8qqjbbbbbbbbbbbbzq0qqqqq00q0wcbbbbbbbbbbbb=         nnnnnnnn",
"nnnnnnnnn      .  0bbbbbbbbbbbbvreeeeeeeeeeubbbbbbbz   -bbrO     #7qqqfbbbbbbbbbbbbvw00wq00qqqqqcbbbbbbbbbbbbr         nnnnnnnnn",
"nnnnnnnnnn.       Xjbbbbbbbbbbbbzreeeeeeeetvbbbbbbbb@  +f#     O3qqqqubbbbbbbbbbbbve0w00qqqqqqevbbbbbbbbbbbbjX  .    .nnnnnnnnnn",
"nnnnnnnnnn         @vbbbbbbbbbbbbvyeeeeeeecbbbbbbbbb,        X;qqqqqtbbbbbbbbbbbbbyqq0w0q00qqrvbbbbbbbbbbbbb@.        nnnnnnnnnn",
"nnnnnnnnnnn  .      *bbbbbbbbbbbbbbaeeeeejbbbbbbbbbbi      .$8qqwqqwvbbbbbbbbbbbbaw00w0qqqqqibbbbbbbbbbbbbb*.      . nnnnnnnnnnn",
"nnnnnnnnnnn        . 1bbbbbbbbbbbbbbjeewfbbbbbbbbbbbbX    @6qqqwqqwxbbbbbbbbbbbbhqqqw00qqwwgbbbbbbbbbbbbbb3  .       nnnnnnnnnnn",
"nnnnnnnnnnnn   .     .9bbbbbbbbbbbbbbvyibbbbbbbbbbbbv#  O2qqqwqqqqhbbbbbbbbbbbbzqqqq0qqq0exbbbbbbbbbbbbbb8          nnnnnnnnnnnn",
"nnnnnnnnnnnnn         .rbbbbbbbbbbbbbbbbbbbbbbbbbbbbi*.-qqqqqqqqqabbbbbbbbbbbbvwqq0qqqq0sbbbbbbbbbbbbbbbq.      .  nnnnnnnnnnnnn",
"nnnnnnnnnnnnnn   .     .tbbbbbbbbbbbbbbbbbbbbbbbbbbfq89qwqqqwqqqubbbbbbbbbbbbbtqq0qqqqycbbbbbbbbbbbbbbbe. .    .  nnnnnnnnnnnnnn",
"nnnnnnnnnnnnnn         ..rbbbbbbbbbbbbbbbbbbbbbbbbjqqwqwqqqqqqqrvbbbbbbbbbbbbiqq0wqqtlbbbbbbbbbbbbbbbb9.  .       nnnnnnnnnnnnnn",
"nnnnnnnnnnnnnnn  .      ..9bbbbbbbbbbbbbbbbbbbbbbzqqqqqqqwqqwqwvbbbbbbbbbbbbfqqq00yjbbbbbbbbbbbbbbbbb6.          nnnnnnnnnnnnnnn",
"nnnnnnnnnnnnnnnn          .<bbbbbbbbbbbbbbbbbbbbveqwwqqqwqwqqqkbbbbbbbbbbbbj0qqwpzbbbbbbbbbbbbbbbbbb,   .    .  nnnnnnnnnnnnnnnn",
"nnnnnnnnnnnnnnnnn   .       *vbbbbbbbbbbbbbbbbbbbkpwqqqqqqqqqdbbbbbbbbbbbbvqqijvbbbbbbbbbbbbbbbbbbv$           nnnnnnnnnnnnnnnnn",
"nnnnnnnnnnnnnnnnnn    .   .  +jbbbbbbbbbbbbbbbbbbbbbzfuwqqqqpbbbbbbbbbbbbblzbbbbbbbbbbbbbbbbbbbbbfO.          nnnnnnnnnnnnnnnnnn",
"nnnnnnnnnnnnnnnnnnn           X9bbbbbbbbbbbbbbbbbbbbbbbbvxhfbbbbbbbbbbbbbbbbbbbbbbbbbbbbbbbbbbbb8.  .  .     nnnnnnnnnnnnnnnnnnn",
"nnnnnnnnnnnnnnnnnnnn            %zbbbbbbbbbbbbbbbbbbbbbbbbbbbbbbbbbbbbbbbbbbbbbbbbbbbbbbbbbbbbl$         .  nnnnnnnnnnnnnnnnnnnn",
"nnnnnnnnnnnnnnnnnnnnn   .        X8bbbbbbbbbbbbbbbbbbbbbbbbbbbbbbbbbbbbbbbbbbbbbbbbbbbbbbbbbb8X   .        nnnnnnnnnnnnnnnnnnnnn",
"nnnnnnnnnnnnnnnnnnnnnn  .          @sbbbbbbbbbbbbbbbbbbbbbbbbbbbbbbbbbbbbbbbbbbbbbbbbbbbbbba@.   .    .   nnnnnnnnnnnnnnnnnnnnnn",
"nnnnnnnnnnnnnnnnnnnnnnn   .    .    .%fbbbbbbbbbbbbbbbbbbbbbbbbbbbbbbbbbbbbbbbbbbbbbbbbbbg%.   .         nnnnnnnnnnnnnnnnnnnnnnn",
"nnnnnnnnnnnnnnnnnnnnnnnnn        .    .*fbbbbbbbbbbbbbbbbbbbbbbbbbbbbbbbbbbbbbbbbbbbbbbf&. .  .        nnnnnnnnnnnnnnnnnnnnnnnnn",
"nnnnnnnnnnnnnnnnnnnnnnnnnn               #rbbbbbbbbbbbbbbbbbbbbbbbbbbbbbbbbbbbbbbbbbbt$             . nnnnnnnnnnnnnnnnnnnnnnnnnn",
"nnnnnnnnnnnnnnnnnnnnnnnnnnn .              o,fbbbbbbbbbbbbbbbbbbbbbbbbbbbbbbbbbbbbj<O               .nnnnnnnnnnnnnnnnnnnnnnnnnnn",
"nnnnnnnnnnnnnnnnnnnnnnnnnnnnn .   .  .        +<abbbbbbbbbbbbbbbbbbbbbbbbbbbbbbf<@      .  .     . nnnnnnnnnnnnnnnnnnnnnnnnnnnnn",
"nnnnnnnnnnnnnnnnnnnnnnnnnnnnnnn    .             X%3avbbbbbbbbbbbbbbbbbbbbbf6*X.                 nnnnnnnnnnnnnnnnnnnnnnnnnnnnnnn",
"nnnnnnnnnnnnnnnnnnnnnnnnnnnnnnnn          .      .   .+%,8tfzvvbbbvjfu01*@. .     .   .      .  nnnnnnnnnnnnnnnnnnnnnnnnnnnnnnnn",
"nnnnnnnnnnnnnnnnnnnnnnnnnnnnnnnnnn    .      .                ...  .          .   .           nnnnnnnnnnnnnnnnnnnnnnnnnnnnnnnnnn",
"nnnnnnnnnnnnnnnnnnnnnnnnnnnnnnnnnnnn .              .     .                                .nnnnnnnnnnnnnnnnnnnnnnnnnnnnnnnnnnnn",
"nnnnnnnnnnnnnnnnnnnnnnnnnnnnnnnnnnnnnn  . .      .                  . .    ..     .       nnnnnnnnnnnnnnnnnnnnnnnnnnnnnnnnnnnnnn",
"nnnnnnnnnnnnnnnnnnnnnnnnnnnnnnnnnnnnnnnn               .  .  .                      .   nnnnnnnnnnnnnnnnnnnnnnnnnnnnnnnnnnnnnnnn",
"nnnnnnnnnnnnnnnnnnnnnnnnnnnnnnnnnnnnnnnnnnn           . .    .  .         .          nnnnnnnnnnnnnnnnnnnnnnnnnnnnnnnnnnnnnnnnnnn",
"nnnnnnnnnnnnnnnnnnnnnnnnnnnnnnnnnnnnnnnnnnnnnn.  .                            .   nnnnnnnnnnnnnnnnnnnnnnnnnnnnnnnnnnnnnnnnnnnnnn",
"nnnnnnnnnnnnnnnnnnnnnnnnnnnnnnnnnnnnnnnnnnnnnnnnnn                     .      nnnnnnnnnnnnnnnnnnnnnnnnnnnnnnnnnnnnnnnnnnnnnnnnnn",
"nnnnnnnnnnnnnnnnnnnnnnnnnnnnnnnnnnnnnnnnnnnnnnnnnnnnnnnn           .    nnnnnnnnnnnnnnnnnnnnnnnnnnnnnnnnnnnnnnnnnnnnnnnnnnnnnnnn"
};
