/* XPM */
static char *_527257078886[] = {
/* columns rows colors chars-per-pixel */
"64 64 45 1 ",
"  c #3F3F3F",
". c #434343",
"X c #4B4B4B",
"o c #535353",
"O c #5B5C5C",
"+ c gray39",
"@ c #676768",
"# c #6C6C6C",
"$ c #727272",
"% c #7C7C7C",
"& c gray51",
"* c #8B8B8C",
"= c #8E8F90",
"- c gray58",
"; c #9B9B9B",
": c #9FA0A1",
"> c #A4A4A4",
", c #AAABAB",
"< c #AFB0B2",
"1 c #B4B4B4",
"2 c #B7B8BA",
"3 c #B9BBBC",
"4 c #BDBFC0",
"5 c #BFC1C2",
"6 c #C2C3C3",
"7 c #C6C7C9",
"8 c #C7C8CA",
"9 c #CBCCCD",
"0 c #CECFD0",
"q c #CFD0D1",
"w c #D3D4D5",
"e c #D6D7D8",
"r c #D7D8D9",
"t c gainsboro",
"y c #DFDFE1",
"u c #DFE0E1",
"i c #E3E4E4",
"p c #E7E7E8",
"a c #E7E8E8",
"s c #ECECEC",
"d c #EFEFF0",
"f c #EFF0F0",
"g c #F4F4F4",
"h c white",
"j c None",
/* pixels */
"jjjjjjjjjjjjjjjjjjjjjjjjjj           jjjjjjjjjjjjjjjjjjjjjjjjjjj",
"jjjjjjjjjjjjjjjjjjjjjj     .              jjjjjjjjjjjjjjjjjjjjjj",
"jjjjjjjjjjjjjjjjjjjj  .          .      .   jjjjjjjjjjjjjjjjjjjj",
"jjjjjjjjjjjjjjjjj             ....     .       jjjjjjjjjjjjjjjjj",
"jjjjjjjjjjjjjjjj .  .   .#;3tghhhhgr3;#..       jjjjjjjjjjjjjjjj",
"jjjjjjjjjjjjjj       .%6ghhhhhhhhhhhhhhg3%.       jjjjjjjjjjjjjj",
"jjjjjjjjjjjjj      o>shhhhhhhhhhhhhhhhhhhhs>o      jjjjjjjjjjjjj",
"jjjjjjjjjjj      X,ghhhhhhhhhhhhhhhhhhhhhhhhg,X.  .  jjjjjjjjjjj",
"jjjjjjjjjj      &ghhhhhhhhhhhhhhhhhhhhhhhhhhhhs&      jjjjjjjjjj",
"jjjjjjjjj  .  X3hhhhhhhhhhghhhhhhgrisghhhhhhhhhh3X     jjjjjjjjj",
"jjjjjjjj     Oihhhhhhhhgiwahhhhhhe9999wshhhhhhhhhto.    jjjjjjjj",
"jjjjjjj     @shhhhhhhgr99ihhhghhr99099wghhhhhhhhhha+.    jjjjjjj",
"jjjjjjj    @ghhhhhhgtqq9rhhg,ohi990990ghhhhhhhhhhhhg+.   jjjjjjj",
"jjjjjj    Oshhhhhhawq9qehh9O  6909999shhhhhgwihhhhhhso  . jjjjjj",
"jjjjj    Xthhhhhhu009wwgi$ .$ *99090ihhhhhhe77rhhhhhht.    jjjjj",
"jjjjj    2hhhhhht00009p-. $ig O9999thhhhhht7777wghhhhh2    jjjjj",
"jjjj    %hhhhhhrqqqq9;o O9hhh# 799ehhhhhhi777778ghhhhhh&    jjjj",
"jjj    Xshhhhht09q9,O X>ghhhh; :9wghhhhhd777777phhhhhhhsX    jjj",
"jjj    >hhhhha00q9$  *shhhhhhw %0ghhhhhg977777thhhhhhhhh,.   jjj",
"jjj. .oghhhhgw00q0o.ehhhhhhhhh.oshhhhhh977777rhhhhhhhhhhgo   jjj",
"jj   .>hhhhht99q9w& rhhhhhhhhh% is-hhhe77777qhhhhhhfhhhhh> .  jj",
"jj   .ghhhhdqqq0qs6 ,hhhhhhhhh< >@Xhht777779ghhhhhs6ahhhhg.   jj",
"j    &hhhhhr9q9qihg.$hhhhhhhhhi    wp777777dhhhhhg860hhhhh% .  j",
"j    4hhhhg00qwthhh#.ghhhhhhhhhO X -877777ihhhhhg9666ghhhh6    j",
"j   .ghhhhi0q9rhhhh> 7hhhhhhhhh-oi +77777thhhhhhw5656thhhhg.. .j",
"j  .#hhhhhw09wghhhhe -hhhhhhhhh9uh+ 6777ehhhhhhr566668hhhhh#   j",
"j   -hhhhg00qghhhhhg.Ohhhhhhhhhhhh; >779ghhhhhi666666ahhhhh;    ",
"    2hhhha00shhhhhg0@ ahhhhhhhhhhhw $88ghhhhhg65*;56ihhhhhh3    ",
"    whhhhi9ihhhhhhe7* 2hhhhhhhhhhhg o8dhhhhhg7;o $5ehhhhhhhr.   ",
"    ahhhhtthhhhhht77< &hhhhhhhhhhh* $ihhhhhh3@  .Xwghhhhhhhf    ",
"    ghhhhuhhhhhha7777XXhhhhhhhhhh, Orhhhhhg-. #r% thhhhhhhhg    ",
"   .hhhhhhhhhhhg88777$ rhhhhhhhhh% 2hhhhh3O o3hh1 1hhhhhhhhh.   ",
"   .hhhhhhhhhhg977777: >hhhhhhhhh1 ,hhhr# .;ghhha %hhhhhhhhh.   ",
"    ghhhhhhhhhq77777ws $hhhhhhhhhi %hs*. &ahhhhhhOXhhhrhhhhh    ",
"    ahhhhhhhhw777779ghO ghhhhhhhhhOX>X +whhhhhhhh- whw8hhhhs    ",
"    ehhhhhhhy777779gh1 @ghhhhhhhhh*  X1hhhhhhhhhh7 ;u3whhhhr    ",
"    2hhhhhha777778dh0.Xshhhhhhhhhh3.-ghhhhhhhhhhh< O22ihhhh3    ",
"    ;hhhhhg877777ihh- 2hhhhhhhhhhhgihhhhhhhhhhhr@ .&33ghhhh-    ",
"j   $hhhhh077788thhhw -hhhhhhhhhhhhhhhhhhhhhhs&  %,335hhhhh@   j",
"j   .ghhhhy7777rhhhhg.+hhhhhhhhhhhhhhhhhhhhg>. +09223rhhhhg..  j",
"j    6hhhhg7770ghhhhh$ ah5hhhhhhhhhhhhhhhh6O X1he2333fhhhh4    j",
"j  . &hhhhhw78ghhhhhg* 2;Xhhhhhhhhhhhhhht$  -ghu33338hhhhh&   jj",
"jj  ..ghhhhs7shhhhhg8, o  rhhhhhhhhhhhf*  $ihhs32332ahhhhg.   jj",
"jj    >hhhhhshhhhhh953X   >hhhhhhhhhh,X O8hhhf533239hhhhh>.   jj",
"jjj   oghhhhhhhhhhw555#.; #hhhhhhhh8O X,hhhhg723224fhhhhgo . jjj",
"jjj    ,hhhhhhhhht5555-=s+.ghhhhhi%  *dhhhhh922342uhhhhh,    jjj",
"jjj    Xshhhhhhha555554ah; 7hhhg-. O2hhhhhhe333220hhhhhgX   jjjj",
"jjjj    %hhhhhhg555555thh9 *hh1o o-6hhhhhhi233337hhhhhh&    jjjj",
"jjjjj  . 2hhhhhg95555qhhhgXOw+ .&36ghhhhhs333338hhhhhh3    jjjjj",
"jjjjj    Xthhhhhhe559ghhhh%   #<33shhhhhf42333qhhhhhhtX    jjjjj",
"jjjjjj    oshhhhhhi7ghhhhh, O:333ihhhhhg72333uhhhhhhaO    jjjjjj",
"jjjjjjj    +ghhhhhhhhhhhhg<*4333whhhhhh92339ghhhhhhs+  . jjjjjjj",
"jjjjjjj     +shhhhhhhhhhg8333349hhhhhhr345shhhhhhhsO     jjjjjjj",
"jjjjjjjj     othhhhhhhhhp633346ghhhhhi4wdhhhhhhhhro  .  jjjjjjjj",
"jjjjjjjjj     X2hhhhhhhhhhgur9ghhhhhhghhhhhhhhhh1.     jjjjjjjjj",
"jjjjjjjjjj      %ahhhhhhhhhhhhhhhhhhhhhhhhhhhha%  .   jjjjjjjjjj",
"jjjjjjjjjjj      X>ghhhhhhhhhhhhhhhhhhhhhhhhg>X      jjjjjjjjjjj",
"jjjjjjjjjjjjj      X>shhhhhhhhhhhhhhhhhhhhs>o.     jjjjjjjjjjjjj",
"jjjjjjjjjjjjjj       .%3ghhhhhhhhhhhhhhg3&.     . jjjjjjjjjjjjjj",
"jjjjjjjjjjjjjjjj  .   . .@=2eighhgae2-#.  .     jjjjjjjjjjjjjjjj",
"jjjjjjjjjjjjjjjjj     .                .       jjjjjjjjjjjjjjjjj",
"jjjjjjjjjjjjjjjjjjjj          .  .          jjjjjjjjjjjjjjjjjjjj",
"jjjjjjjjjjjjjjjjjjjjjj                    jjjjjjjjjjjjjjjjjjjjjj",
"jjjjjjjjjjjjjjjjjjjjjjjjjj            jjjjjjjjjjjjjjjjjjjjjjjjjj"
};
