/* XPM */
static char *_517408276473[] = {
/* columns rows colors chars-per-pixel */
"16 16 95 2 ",
"   c #3E3E3E",
".  c #3F3F3F",
"X  c gray32",
"o  c #535353",
"O  c gray51",
"+  c #838383",
"@  c #848484",
"#  c gray52",
"$  c gray54",
"%  c #8B8B8C",
"&  c #8D8E8F",
"*  c #919292",
"=  c #929292",
"-  c #959595",
";  c #999A9A",
":  c #9A9A9A",
">  c gray61",
",  c #9D9E9E",
"<  c gray62",
"1  c #A0A0A0",
"2  c #A0A0A1",
"3  c #A0A1A1",
"4  c gray63",
"5  c #A4A4A4",
"6  c #A5A5A5",
"7  c gray65",
"8  c gray66",
"9  c #AAAAAA",
"0  c gray67",
"q  c #ACADAE",
"w  c gray69",
"e  c #B1B1B1",
"r  c #B4B6B6",
"t  c #B6B7B7",
"y  c #BABABB",
"u  c #BBBDBF",
"i  c #BCBDBE",
"p  c gray75",
"a  c #BEC0C2",
"s  c #C0C0C0",
"d  c #C1C1C1",
"f  c gray76",
"g  c #C2C3C5",
"h  c #C5C7C9",
"j  c #C7C8CA",
"k  c #CACBCC",
"l  c #CBCCCC",
"z  c #CDCECF",
"x  c #CECFD1",
"c  c #D0D0D1",
"v  c #D0D1D2",
"b  c #D1D2D3",
"n  c #D5D6D7",
"m  c #DADADA",
"M  c #DBDCDD",
"N  c #DDDDDD",
"B  c gray87",
"V  c #DEDEDF",
"C  c #DFDFDF",
"Z  c #E0E1E1",
"A  c #E1E2E3",
"S  c #E2E2E2",
"D  c #E2E3E3",
"F  c #E3E4E5",
"G  c #E5E6E6",
"H  c #E6E6E6",
"J  c #E6E7E7",
"K  c #E7E7E8",
"L  c #E9E9EA",
"P  c #EAEBEB",
"I  c #EBECEC",
"U  c gray93",
"Y  c #EDEDEE",
"T  c #EDEEEE",
"R  c #EEEFEF",
"E  c #EFEFEF",
"W  c #EFEFF0",
"Q  c #EFF0F0",
"!  c #F1F1F1",
"~  c gray95",
"^  c #F3F3F3",
"/  c #F3F4F4",
"(  c #F4F4F4",
")  c gray96",
"_  c #F6F6F6",
"`  c #F6F6F7",
"'  c gray97",
"]  c #F8F8F8",
"[  c gray98",
"{  c #FBFBFB",
"}  c #FBFCFC",
"|  c gray99",
" . c #FEFEFE",
".. c white",
"X. c None",
/* pixels */
"X.X.X.X.X.. . . . . . X.X.X.X.X.",
"X.X.X.. X 6 C  . .N 5 X . X.X.X.",
"X.X.. @ _ ] _  .J L  ._ @ . X.X.",
"X.. @  .K x 9 - l ~ ` J  .+ . X.",
"X.X _ J q 3 ~ 3 P { v n  ._ X X.",
". 6 ] v y S  .f $ n v ] J _ 6 . ",
". N J I ~ w  ._ 5 g _ Q i L N X ",
". ] ~  .n :  . .0 A N = < ] ~   ",
". |  .N k >  . .9 6 f  .9 T ] . ",
". C T j Q 3  . .T ]  .f & M N . ",
". 6 ] L ] = w  . .m < l u _ 6 . ",
"X.X _  .b r 3 T < i _ a M _ X X.",
"X.. @  .N _ r % N ] h M  .@ . X.",
"X.X.. + _  .S M  .T _ _ + . X.X.",
"X.X.X.. X 3 N ] ] S 6 X . X.X.X.",
"X.X.X.X.X.  X . . . . X.X.X.X.X."
};
