/* XPM */
static char *_517408272909[] = {
/* columns rows colors chars-per-pixel */
"32 32 212 2 ",
"   c gray24",
".  c #3E3E3E",
"X  c #3F3F3F",
"o  c gray25",
"O  c #414141",
"+  c gray26",
"@  c gray28",
"#  c gray31",
"$  c #505050",
"%  c #515151",
"&  c gray32",
"*  c #545455",
"=  c #565656",
"-  c #565757",
";  c gray35",
":  c #5A5A5A",
">  c #5B5B5B",
",  c gray37",
"<  c #5F5F5F",
"1  c #606060",
"2  c gray38",
"3  c #626262",
"4  c #636364",
"5  c #646464",
"6  c gray40",
"7  c #676868",
"8  c DimGray",
"9  c #6A6A6A",
"0  c #6C6C6C",
"q  c #6D6D6D",
"w  c gray43",
"e  c #6E6E6F",
"r  c #6F6F6F",
"t  c gray44",
"y  c #717171",
"u  c gray45",
"i  c #737475",
"p  c gray46",
"a  c #767676",
"s  c #777777",
"d  c gray47",
"f  c #797979",
"g  c #79797A",
"h  c gray48",
"j  c #7C7C7C",
"k  c #7D7D7E",
"l  c gray50",
"z  c #808181",
"x  c gray51",
"c  c #868686",
"v  c gray53",
"b  c #898A8A",
"n  c gray54",
"m  c #8A8A8B",
"M  c #8B8B8B",
"N  c gray55",
"B  c #929292",
"V  c #929394",
"C  c #959595",
"Z  c #959596",
"A  c gray60",
"S  c #9B9C9D",
"D  c #9C9D9E",
"F  c #9F9F9F",
"G  c #A0A0A0",
"H  c gray63",
"J  c #A0A1A2",
"K  c #A7A7A7",
"L  c gray66",
"P  c #A9A9A9",
"I  c #A8A9AB",
"U  c #AAAAAA",
"Y  c #AAABAC",
"T  c #ABACAE",
"R  c #B1B1B1",
"E  c gray70",
"W  c gray71",
"Q  c #B6B6B6",
"!  c #B7B7B7",
"~  c #B5B7B9",
"^  c #B8B9B9",
"/  c #B9B9B9",
"(  c #B8BABC",
")  c #BBBBBC",
"_  c #BABBBD",
"`  c #BBBDBE",
"'  c #BCBCBC",
"]  c gray",
"[  c #BCBEC0",
"{  c #BDBEC0",
"}  c #BFC1C2",
"|  c #BFC1C3",
" . c #C1C1C1",
".. c #C1C2C3",
"X. c #C1C3C5",
"o. c #C2C3C4",
"O. c #C4C6C7",
"+. c #C5C6C7",
"@. c #C6C6C6",
"#. c #C6C7C7",
"$. c gray78",
"%. c #C5C6C8",
"&. c #C6C7C9",
"*. c #C6C8C9",
"=. c #C7C8CA",
"-. c #C8C8C8",
";. c gray79",
":. c #C8C9CB",
">. c #CACACB",
",. c #CACBCB",
"<. c #C9CACC",
"1. c #CACACC",
"2. c #CACBCC",
"3. c #CACBCD",
"4. c #CDCDCD",
"5. c #CCCDCE",
"6. c #CDCECF",
"7. c #CECFD0",
"8. c #CECFD1",
"9. c #CFCFD1",
"0. c #CFD0D1",
"q. c #D0D0D0",
"w. c gray82",
"e. c #D0D0D2",
"r. c #D0D1D2",
"t. c #D1D2D3",
"y. c LightGray",
"u. c #D2D3D4",
"i. c #D2D4D5",
"p. c #D3D5D6",
"a. c gray83",
"s. c #D5D5D5",
"d. c #D4D5D6",
"f. c #D5D5D6",
"g. c #D4D5D7",
"h. c #D5D6D6",
"j. c #D5D6D7",
"k. c gray84",
"l. c #D7D7D7",
"z. c #D6D7D8",
"x. c #D7D8D9",
"c. c #D8D9D9",
"v. c gray85",
"b. c #D9D9DA",
"n. c #DADADA",
"m. c gray86",
"M. c #DADBDD",
"N. c #DBDCDD",
"B. c gainsboro",
"V. c #DCDCDD",
"C. c #DCDCDE",
"Z. c #DDDEDF",
"A. c gray87",
"S. c #DEDEDF",
"D. c #DFDFDF",
"F. c #DFE0E1",
"G. c gray88",
"H. c #E0E0E1",
"J. c #E1E1E2",
"K. c #E1E2E3",
"L. c #E2E2E2",
"P. c #E2E3E3",
"I. c gray89",
"U. c #E2E3E4",
"Y. c #E3E4E4",
"T. c #E4E4E4",
"R. c #E4E4E5",
"E. c #E4E5E5",
"W. c gray90",
"Q. c #E6E6E6",
"!. c #E6E7E7",
"~. c #E6E7E8",
"^. c #E7E7E8",
"/. c #E7E8E8",
"(. c #E8E8E9",
"). c #EAEAEA",
"_. c #EBEBEC",
"`. c #EBECEC",
"'. c #ECECEC",
"]. c #ECEDED",
"[. c gray93",
"{. c #EEEEEE",
"}. c #EEEEEF",
"|. c #EEEFEF",
" X c #EFEFEF",
".X c #EFEFF0",
"XX c #EFF0F0",
"oX c gray94",
"OX c #F1F1F1",
"+X c gray95",
"@X c #F2F3F3",
"#X c #F3F3F3",
"$X c #F4F4F4",
"%X c #F4F4F5",
"&X c #F4F5F5",
"*X c gray96",
"=X c #F6F6F6",
"-X c #F6F6F7",
";X c #F6F7F7",
":X c gray97",
">X c #F8F8F8",
",X c #F8F9F9",
"<X c #F9F9FA",
"1X c gray98",
"2X c #FBFBFB",
"3X c #FBFCFC",
"4X c gray99",
"5X c #FCFCFD",
"6X c #FDFDFD",
"7X c #FEFEFE",
"8X c white",
"9X c None",
/* pixels */
"9X9X9X9X9X9X9X9X9X9X9X9XX . o . . . o . 9X9X9X9X9X9X9X9X9X9X9X9X",
"9X9X9X9X9X9X9X9X9XX . X X X o + o o X X o o . 9X9X9X9X9X9X9X9X9X",
"9X9X9X9X9X9X9X. o o o y U c.;X4X4X;Xk.U e o o . . 9X9X9X9X9X9X9X",
"9X9X9X9X9X9X. . o N W.4X4X4X4X4X4X4X4X4X4XW.N @ . o 9X9X9X9X9X9X",
"9X9X9X9X9Xo . 3 V.4X4X4X4X4X4X4X4XoX>X4X4X4X4XV.3 . . 9X9X9X9X9X",
"9X9X9X9Xo . j ,X4X4X4X).M.4X4X4XD.7.7.K.4X4X4X4X;Xh X . 9X9X9X9X",
"9X9X9XX o j 4X4X4X Xr.7.;X>.< c.4.5.k.4X4X4X X4X4X4Xa . . 9X9X9X",
"9X9X. . 3 ,X4X4XK.7.7.q.a a h H 7.0.>X4X4XK.=.V.4X4X;X3 o . 9X9X",
"9X9XX o V.4X4XK.7.#.z < >.4Xo.h 7.;X4X4X~.&.=.0.4X4X4XV.@ . 9X9X",
"9XX o N 4X4X X0.7.% U ,X4X4X$X* _.4X4X.X=.&.3.,X4X4X4X4XN . . 9X",
"9Xo o W.4X4Xr.7.c.y K.4X4X4X4X9 ! ! :X3.&.=.oX4X4X/.,X4XW.o o 9X",
"9Xo y 4X4XW.7.r.,XU Y 4X4X4X4XH o h 7.&.&.~.4X4XoX#.K.4X4Xy . 9X",
". . U 4X4Xz.r.;X4XD.a 4X4X4X4Xc.#.% &.=.K.4X4X;X#.o.4.4X4XU o X ",
". o k.4X,X0. X4X4XoX% ,X4X4X4X4X4Xh Y k.4X4X4X4.Y o.Y.4X4Xc.X . ",
". o  X4XoXW.4X4X,X3.e 4.4X4X4X4X4Xl S ,X4X4X^ > # x.4X4X4XoXX X ",
"o . 4X4X;X4X4X4Xr.&.V A 4X4X4X4X>.5 ;X4X Xv 5 r.e K.4X4X4X4Xo . ",
"o o 4X4X4X4X4Xz.&.&.>.5 4X4X4X4XW.9 ,XU > ! 4X4XH E 4X;X4X4Xo o ",
". o oX4X4X4XD.&.&.k.).# 4X4X4X4X4X< < Z ;X4X4X4Xk.j M.).4XoXo o ",
"o . k.4X4X).&.&.7.,Xh ] 4X4X4X4X4X/ K.4X4X4X4X$XZ * _ ;X4Xk.o . ",
". o Y 4X4Xr.&.3.,X4XZ ] 4X4X4X4X4X4X4X4X4X4X! > Z ~ X.4X4XK o . ",
"9Xo y 4X4XW.3.XX4X4X] M U 4X4X4X4X4X4X4Xk.6 v Y.| _ D.4X4Xy . 9X",
"9X. o ).4X4X).4X4XoX_ @ . V.4X4X4X4X'.z 9 k.3X=.( [ 3X4X).o . 9X",
"9X. . N 4X4X4X4X:XX.| i M U 4X4X,XH > / 4X4Xi.( ( Y.4X4XN . . 9X",
"9X9Xo o V.4X4X3X5.| | F.c.a 4X] > j  X4X4XV._ _ i.4X4XV.o . 9X9X",
"9X9X. o 3 ;X4X4Xc.o.k.4X4X> e 7 Y _.4X4X~._ _ x.4X4X;X3 . X 9X9X",
"9X9X9X. . h 4X4X4X X4X4X3XM D _ V.4X4XoX_ [ W.4X4X4Xh o . 9X9X9X",
"9X9X9X9X. . h :X4X4X4X4Xc._ _ 9.4X4X,X3.N.,X4X4X,Xa o . 9X9X9X9X",
"9X9X9X9X9X. . 3 V.4X4X4X4X;X).5X4X4X4X4X4X4X4Xc.< o . 9X9X9X9X9X",
"9X9X9X9X9X9X. o o M W.4X4X4X4X4X4X4X4X4X4XW.N o X X 9X9X9X9X9X9X",
"9X9X9X9X9X9X9X. . . o e U r.oX4X4XoXk.Y r o o . . 9X9X9X9X9X9X9X",
"9X9X9X9X9X9X9X9X9X. o . o o X X X X X X X X . 9X9X9X9X9X9X9X9X9X",
"9X9X9X9X9X9X9X9X9X9X9X9X. . . . X X . . 9X9X9X9X9X9X9X9X9X9X9X9X"
};
